#!OML:ASF E:\Steps\Project 1\Capture day 1\Session 2\Subject.ASF
:FULLY-SPECIFIED
:DEGREES
430
root 10.6672 15.0098 2.36298 -152.279 -1.64953 -183.351
lowerback -9.19034 -0.725222 -4.2945
upperback -0.689477 -0.584948 -0.717988
thorax 4.47269 -0.406947 1.59009
lowerneck -0.169593 0.173107 -2.73555
upperneck 8.63781 -0.362422 4.53029
head 2.80766 -0.264231 1.93072
rclavicle 9.13167e-015 1.88845e-015
rhumerus -19.5804 -12.4063 -86.5811
rradius 21.9904
rwrist 10.8483
rhand -13.2053 -54.8411
rfingers 7.12502
rthumb 12.8953 -84.4227
lclavicle 9.13167e-015 1.88845e-015
lhumerus -14.6731 -12.2473 84.2754
lradius 16.3113
lwrist -11.6817
lhand -23.5984 -15.4877
lfingers 7.12502
lthumb 2.86521 14.4728
rfemur -56.9515 4.38346 17.8505
rtibia 64.6488
rfoot 149.117 168.233
rtoes -37.1404
lfemur -57.3893 -6.24146 -17.5802
ltibia 63.5827
lfoot -18.9873 3.3455
ltoes -30.0715
431
root 10.6755 15.1618 2.33012 -151.917 -1.67009 -183.391
lowerback -9.55756 -0.811112 -4.38434
upperback -0.706391 -0.676893 -0.673436
thorax 4.6676 -0.45984 1.67108
lowerneck -0.28902 0.171513 -2.79501
upperneck 8.63642 -0.358155 4.56071
head 2.82994 -0.259845 1.9526
rclavicle -1.10574e-015 9.69075e-015
rhumerus -20.1261 -12.8601 -86.242
rradius 21.6468
rwrist 11.274
rhand -13.1001 -54.7603
rfingers 7.12502
rthumb 12.9967 -84.3355
lclavicle -1.10574e-015 9.69075e-015
lhumerus -14.9625 -10.4715 84.0734
lradius 15.3853
lwrist -12.4371
lhand -23.6552 -15.4474
lfingers 7.12502
lthumb 2.81033 14.5138
rfemur -56.1079 4.51793 17.692
rtibia 62.3752
rfoot 150.203 167.958
rtoes -37.3375
lfemur -56.6003 -6.47839 -17.419
ltibia 61.4619
lfoot -17.8001 3.71184
ltoes -30.8274
432
root 10.6813 15.3074 2.29914 -151.55 -1.6851 -183.402
lowerback -9.86666 -0.848746 -4.41317
upperback -0.8217 -0.720508 -0.67475
thorax 4.72246 -0.485659 1.67724
lowerneck -0.285396 0.153851 -2.74144
upperneck 8.65359 -0.387035 4.56556
head 2.83592 -0.273275 1.94401
rclavicle 1.93815e-015 3.47873e-015
rhumerus -20.8809 -13.2402 -85.9536
rradius 21.3098
rwrist 11.395
rhand -12.605 -54.9823
rfingers 7.12502
rthumb 13.4739 -84.5265
lclavicle 1.93815e-015 3.47873e-015
lhumerus -15.3883 -8.27756 83.7372
lradius 14.5105
lwrist -14.0193
lhand -23.786 -15.7149
lfingers 7.12502
lthumb 2.68404 14.248
rfemur -55.2752 4.6745 17.5394
rtibia 60.1203
rfoot 151.289 167.729
rtoes -37.7037
lfemur -55.7826 -6.70709 -17.2183
ltibia 59.2476
lfoot -16.762 4.14487
ltoes -32.3453
433
root 10.6829 15.446 2.26934 -151.124 -1.67088 -183.338
lowerback -10.2479 -0.824453 -4.34654
upperback -0.99221 -0.694497 -0.646049
thorax 4.75422 -0.475495 1.67039
lowerneck -0.177755 0.115898 -2.66574
upperneck 8.66312 -0.45014 4.57761
head 2.82134 -0.305643 1.93213
rclavicle 3.80176e-015 2.43511e-015
rhumerus -21.7324 -13.506 -85.5881
rradius 21.1165
rwrist 11.0496
rhand -12.0682 -55.059
rfingers 7.12502
rthumb 13.9913 -84.5682
lclavicle 3.80176e-015 2.43511e-015
lhumerus -15.9417 -6.36288 83.4827
lradius 13.9307
lwrist -15.0389
lhand -23.6717 -15.6944
lfingers 7.12502
lthumb 2.79445 14.267
rfemur -54.5886 4.80945 17.4456
rtibia 58.0347
rfoot 152.216 167.725
rtoes -37.7662
lfemur -55.0829 -6.96197 -16.9098
ltibia 57.0806
lfoot -15.8139 4.5744
ltoes -33.5731
434
root 10.6842 15.5807 2.23861 -150.747 -1.62271 -183.288
lowerback -10.6512 -0.808862 -4.31228
upperback -1.08976 -0.670501 -0.619071
thorax 4.8751 -0.468443 1.6791
lowerneck -0.180239 0.100163 -2.64909
upperneck 8.66534 -0.474614 4.60158
head 2.8237 -0.316874 1.93656
rclavicle -3.90115e-015 -9.98893e-015
rhumerus -22.3267 -13.8218 -85.262
rradius 20.9338
rwrist 10.8398
rhand -11.8686 -55.3159
rfingers 7.12502
rthumb 14.1836 -84.8117
lclavicle -3.90115e-015 -9.98893e-015
lhumerus -16.405 -4.57906 83.1759
lradius 13.4064
lwrist -15.9171
lhand -23.6049 -15.4377
lfingers 7.12502
lthumb 2.85892 14.5229
rfemur -53.9082 4.95458 17.3329
rtibia 56.0623
rfoot 153.106 167.753
rtoes -37.3959
lfemur -54.3715 -7.27981 -16.5873
ltibia 55.018
lfoot -14.9638 4.89024
ltoes -33.4429
435
root 10.6859 15.709 2.2047 -150.478 -1.53739 -183.303
lowerback -10.991 -0.839664 -4.3834
upperback -1.15781 -0.696726 -0.608659
thorax 4.99539 -0.488238 1.72275
lowerneck -0.185582 0.122212 -2.62
upperneck 8.65998 -0.445866 4.60303
head 2.82144 -0.301712 1.93245
rclavicle 6.01324e-015 4.00054e-015
rhumerus -22.8455 -14.3076 -84.9284
rradius 20.6312
rwrist 11.4054
rhand -11.956 -55.3055
rfingers 7.12502
rthumb 14.0994 -84.8072
lclavicle 6.01324e-015 4.00054e-015
lhumerus -16.8609 -2.1387 82.65
lradius 12.7412
lwrist -17.7999
lhand -23.6567 -15.4377
lfingers 7.12502
lthumb 2.80888 14.5235
rfemur -53.3913 5.12817 17.1584
rtibia 54.5897
rfoot 153.841 167.69
rtoes -37.1441
lfemur -53.5003 -7.5785 -16.3566
ltibia 52.9403
lfoot -14.1402 5.08238
ltoes -32.1529
436
root 10.6877 15.8298 2.17366 -150.177 -1.51602 -183.306
lowerback -11.3766 -0.906213 -4.42372
upperback -1.25563 -0.776763 -0.535935
thorax 5.11357 -0.534569 1.80544
lowerneck -0.103696 0.152982 -2.66853
upperneck 8.63853 -0.408164 4.62822
head 2.79809 -0.285895 1.9496
rclavicle 5.8393e-016 4.24902e-015
rhumerus -23.4505 -14.7376 -84.4528
rradius 20.3795
rwrist 12.2437
rhand -12.2994 -55.123
rfingers 7.12502
rthumb 13.7685 -84.6474
lclavicle 5.8393e-016 4.24902e-015
lhumerus -17.3254 0.954761 82.0354
lradius 12.0301
lwrist -20.2559
lhand -23.5918 -15.5405
lfingers 7.12502
lthumb 2.87159 14.4199
rfemur -52.4265 5.24595 17.0011
rtibia 52.1709
rfoot 155.031 167.702
rtoes -36.9229
lfemur -52.6723 -7.92167 -16.0485
ltibia 50.8072
lfoot -13.2721 5.15355
ltoes -30.2139
437
root 10.6895 15.9463 2.14672 -149.868 -1.53091 -183.151
lowerback -11.761 -0.925239 -4.25837
upperback -1.34299 -0.818823 -0.442358
thorax 5.23713 -0.557459 1.79979
lowerneck -0.0232498 0.177169 -2.79923
upperneck 8.62339 -0.379142 4.68113
head 2.77845 -0.276008 1.99067
rclavicle 4.73356e-015 2.16178e-015
rhumerus -23.987 -15.1838 -83.971
rradius 20.1838
rwrist 12.7866
rhand -12.4941 -54.9873
rfingers 7.12502
rthumb 13.5809 -84.5244
lclavicle 4.73356e-015 2.16178e-015
lhumerus -17.7909 3.17246 81.509
lradius 11.487
lwrist -21.8141
lhand -23.4835 -15.427
lfingers 7.12502
lthumb 2.97617 14.5319
rfemur -51.5625 5.4466 16.9963
rtibia 49.9187
rfoot 156.086 167.793
rtoes -36.4239
lfemur -51.9451 -8.29115 -15.5017
ltibia 48.7281
lfoot -12.4407 5.35248
ltoes -28.8004
438
root 10.6878 16.0568 2.11473 -149.585 -1.50125 -182.968
lowerback -11.8543 -0.86127 -3.99017
upperback -1.65451 -0.795486 -0.464549
thorax 4.95492 -0.541834 1.63025
lowerneck 0.0505303 0.170399 -2.78354
upperneck 8.66266 -0.399828 4.70091
head 2.77902 -0.288745 1.99381
rclavicle -8.4732e-015 2.75814e-015
rhumerus -24.9593 -15.4064 -83.6183
rradius 20.238
rwrist 12.6178
rhand -11.5927 -55.3018
rfingers 7.12502
rthumb 14.4495 -84.7787
lclavicle -8.4732e-015 2.75814e-015
lhumerus -18.7237 3.83305 81.0529
lradius 11.2759
lwrist -22.0307
lhand -23.336 -15.2711
lfingers 7.12502
lthumb 3.11865 14.6859
rfemur -50.7634 5.70958 16.9866
rtibia 47.8521
rfoot 157.009 167.95
rtoes -35.6325
lfemur -51.1468 -8.59665 -15.046
ltibia 46.685
lfoot -11.5398 5.80722
ltoes -30.084
439
root 10.6872 16.1587 2.08407 -149.214 -1.54667 -182.854
lowerback -12.2832 -0.838445 -3.80144
upperback -1.81934 -0.792425 -0.506719
thorax 5.01548 -0.544534 1.47593
lowerneck 0.13459 0.170388 -2.65261
upperneck 8.65868 -0.409405 4.69618
head 2.76144 -0.292592 1.96768
rclavicle 1.30949e-014 1.49089e-015
rhumerus -25.6666 -15.286 -83.477
rradius 20.3668
rwrist 11.9906
rhand -10.8255 -55.76
rfingers 7.12502
rthumb 15.1886 -85.1825
lclavicle 1.30949e-014 1.49089e-015
lhumerus -19.3317 4.68482 80.5467
lradius 11.0473
lwrist -22.4604
lhand -23.1431 -15.1644
lfingers 7.12502
lthumb 3.30489 14.7898
rfemur -50.137 5.87431 16.9508
rtibia 45.9202
rfoot 157.897 168.019
rtoes -35.0217
lfemur -50.4789 -8.92403 -14.648
ltibia 44.7818
lfoot -10.656 6.13725
ltoes -31.3501
